<?xml version="1.0" encoding="utf-8"?>
<!-- Generator: Adobe Illustrator 24.0.3, SVG Export Plug-In . SVG Version: 6.00 Build 0)  -->
<svg version="1.1" id="Layer_1" xmlns="http://www.w3.org/2000/svg" xmlns:xlink="http://www.w3.org/1999/xlink" x="0px" y="0px"
	 viewBox="0 0 792 612" style="enable-background:new 0 0 792 612;" xml:space="preserve">
<style type="text/css">
	.st0{clip-path:url(#SVGID_2_);}
</style>
<g>
	<g>
		<defs>
			<path id="SVGID_1_" d="M427.7,293.8l-3.3,46.4c-0.4,5.4-5,9.7-10.4,9.7h-36c-5.4,0-10-4.3-10.4-9.7l-3.3-46.4
				c-4.7-0.8-8.3-4.9-8.3-9.8v-4c0-5.4,4.3-9.8,9.7-10l12.9-1.6c1.4-3.7,5.1-6.4,9.3-6.4h16c4.2,0,7.9,2.7,9.3,6.4l12.9,1.6
				c5.4,0.1,9.7,4.6,9.7,10v4C436,288.9,432.4,293,427.7,293.8L427.7,293.8L427.7,293.8z M372.3,294l3.3,45.7
				c0.1,1.2,1.2,2.3,2.4,2.3h36c1.2,0,2.3-1.1,2.4-2.3l3.3-45.7H372.3L372.3,294z M402,305.7c0.2-2.2,2.1-3.8,4.3-3.7
				c2.2,0.2,3.8,2.1,3.7,4.3l-2,24c-0.2,2.2-2.1,3.8-4.3,3.7c-2.2-0.2-3.8-2.1-3.7-4.3L402,305.7L402,305.7z M382,306.3
				c-0.2-2.2,1.5-4.1,3.7-4.3c2.2-0.2,4.1,1.5,4.3,3.7l2,24c0.2,2.2-1.5,4.1-3.7,4.3s-4.1-1.5-4.3-3.7L382,306.3L382,306.3z
				 M366,278c-1.1,0-2,0.9-2,2v4c0,1.1,0.9,2,2,2h60c1.1,0,2-0.9,2-2v-4c0-1.1-0.9-2-2-2c-0.2,0-0.3,0-0.5,0l-16-2
				c-2-0.3-3.5-2-3.5-4c0-1.1-0.9-2-2-2h-16c-1.1,0-2,0.9-2,2c0,2-1.5,3.7-3.5,4l-16,2C366.3,278,366.2,278,366,278L366,278z"/>
		</defs>
		<clipPath id="SVGID_2_">
			<use xlink:href="#SVGID_1_"  style="overflow:visible;"/>
		</clipPath>
		<rect x="346" y="252" class="st0" width="100" height="108"/>
	</g>
</g>
</svg>
