<?xml version="1.0" encoding="iso-8859-1"?>
<!-- Generator: Adobe Illustrator 19.0.0, SVG Export Plug-In . SVG Version: 6.00 Build 0)  -->
<svg version="1.1" id="Capa_1" xmlns="http://www.w3.org/2000/svg" xmlns:xlink="http://www.w3.org/1999/xlink" x="0px" y="0px"
	 viewBox="0 0 376.4 376.4" style="enable-background:new 0 0 376.4 376.4;" xml:space="preserve">
<g>
	<g>
		<g>
			<path d="M61.6,159.4c8.4,0,16.4-3.2,22-8.8l0.4-0.4c5.6-5.6,9.2-13.6,9.2-22.4S89.6,111,84,105.4c-5.6-5.6-13.6-9.2-22.4-9.2
				s-16.8,3.6-22.4,9.2C33.6,111,30,119,30,127.8s3.6,16.8,9.2,22.4C44.8,155.8,52.8,159.4,61.6,159.4z M49.2,115.4
				c3.2-3.2,7.6-5.2,12.4-5.2s9.2,2,12.4,5.2c3.2,3.2,5.2,7.6,5.6,12.4c0,4.8-2,9.2-5.2,12.4c-0.4,0-0.4,0.4-0.4,0.4
				c-3.2,2.8-7.6,4.8-12.4,4.8s-9.2-2-12.4-5.2C46,137,44,132.6,44,127.8S46,118.6,49.2,115.4z"/>
			<path d="M368,74.6c-5.2-5.2-12.4-8.4-20.4-8.4H28.8c-7.6,0-14.8,3.2-20,8l-0.4,0.4C3.2,79.8,0,87,0,95v186.4
				c0,8,3.2,15.2,8.4,20.4c5.2,5.2,12.4,8.4,20.4,8.4h318.8c8,0,15.2-3.2,20.4-8.4s8.4-12.4,8.4-20.4V95
				C376.4,87,373.2,79.8,368,74.6z M13.6,95c0-4.4,1.6-8,4.4-10.8c0.4,0,0.4-0.4,0.4-0.4c2.8-2.4,6.4-4,10.4-4h318.8
				c4.4,0,8,1.6,10.8,4.4s4.4,6.8,4.4,10.8v123.6l-93.2-84.4l-0.4-0.4c-2.8-2.4-7.2-1.6-9.6,1.2l-64.4,78.8l-66-50
				c-2.4-2-6.4-2-8.8,0.4L14,265h-0.4V95z M362.8,237v44.4c0,4.4-1.6,8-4.4,10.8s-6.8,4.4-10.8,4.4H28.8c-4.4,0-8-1.6-10.8-4.4
				c-2-2.4-3.6-4.8-4-8l112-106l66.8,50c2.8,2.4,7.2,2,9.6-1.2l63.2-78L362.8,237L362.8,237z"/>
		</g>
	</g>
</g>
<g>
</g>
<g>
</g>
<g>
</g>
<g>
</g>
<g>
</g>
<g>
</g>
<g>
</g>
<g>
</g>
<g>
</g>
<g>
</g>
<g>
</g>
<g>
</g>
<g>
</g>
<g>
</g>
<g>
</g>
</svg>
