<?xml version="1.0" encoding="utf-8"?>
<!-- Generator: Adobe Illustrator 24.0.3, SVG Export Plug-In . SVG Version: 6.00 Build 0)  -->
<svg version="1.1" id="Layer_1" xmlns="http://www.w3.org/2000/svg" xmlns:xlink="http://www.w3.org/1999/xlink" x="0px" y="0px"
	 viewBox="0 0 792 612" style="enable-background:new 0 0 792 612;" xml:space="preserve">
<style type="text/css">
	.st0{clip-path:url(#SVGID_2_);}
</style>
<g>
	<g>
		<defs>
			<path id="SVGID_1_" d="M377.9,273.5c0.8-0.9,1.9-1.5,3.1-1.5h28c1.2,0,2.4,0.6,3.1,1.5l6.8,8.5H429c5.5,0,10,4.5,10,10v38
				c0,5.5-4.5,10-10,10h-68c-5.5,0-10-4.5-10-10v-38c0-5.5,4.5-10,10-10h10.1L377.9,273.5L377.9,273.5z M382.9,280l-6.8,8.5
				c-0.8,0.9-1.9,1.5-3.1,1.5h-12c-1.1,0-2,0.9-2,2v38c0,1.1,0.9,2,2,2h68c1.1,0,2-0.9,2-2v-38c0-1.1-0.9-2-2-2h-12
				c-1.2,0-2.4-0.6-3.1-1.5l-6.8-8.5H382.9L382.9,280z M395,326c-9.9,0-18-8.1-18-18c0-9.9,8.1-18,18-18s18,8.1,18,18
				C413,317.9,404.9,326,395,326L395,326z M395,318c5.5,0,10-4.5,10-10c0-5.5-4.5-10-10-10c-5.5,0-10,4.5-10,10
				C385,313.5,389.5,318,395,318L395,318z"/>
		</defs>
		<clipPath id="SVGID_2_">
			<use xlink:href="#SVGID_1_"  style="overflow:visible;"/>
		</clipPath>
		<rect x="341" y="262" class="st0" width="108" height="88"/>
	</g>
</g>
</svg>
