<?xml version="1.0" encoding="utf-8"?>
<!-- Generator: Adobe Illustrator 24.0.3, SVG Export Plug-In . SVG Version: 6.00 Build 0)  -->
<svg version="1.1" id="Layer_1" xmlns="http://www.w3.org/2000/svg" xmlns:xlink="http://www.w3.org/1999/xlink" x="0px" y="0px"
	 viewBox="0 0 792 612" style="enable-background:new 0 0 792 612;" xml:space="preserve">
<style type="text/css">
	.st0{clip-path:url(#SVGID_2_);}
</style>
<g>
	<g>
		<defs>
			<path id="SVGID_1_" d="M385,300c-8.8,0-16-7.2-16-16s7.2-16,16-16s16,7.2,16,16S393.8,300,385,300L385,300z M385,292
				c4.4,0,8-3.6,8-8c0-4.4-3.6-8-8-8c-4.4,0-8,3.6-8,8C377,288.4,380.6,292,385,292L385,292z M403,336h-43.5c-4.7,0-8.5-3.8-8.5-8.5
				l0-0.3c0-0.3,0.1-0.9,0.1-1.6c0.1-1.2,0.3-2.4,0.4-3.5c0.3-2.3,0.7-4,1.3-5.3c2.5-5.4,19.8-12.8,32.1-12.8
				c6.5,0,14.5,2.1,20.9,4.9c3.5-3,8.1-4.9,13.1-4.9c11,0,20,9,20,20c0,11-9,20-20,20C412.5,344,406.6,340.9,403,336L403,336
				L403,336z M399.4,328L399.4,328c-0.3-1.3-0.4-2.6-0.4-4c0-3.1,0.7-6,1.9-8.5c-5.4-2.2-11-3.5-15.9-3.5c-5.2,0-11.3,1.5-17,3.9
				c-2.4,1-4.5,2.1-6.1,3.2c-0.7,0.5-1.3,0.9-1.6,1.2c-0.1,0-0.1,0.1-0.1,0.1c-0.2,0.5-0.4,1.5-0.6,2.8c-0.1,1-0.3,2.1-0.4,3.1
				c0,0.5-0.1,0.9-0.1,1.2c0,0.2,0.2,0.4,0.5,0.4H399.4L399.4,328z M413.8,319.2c-1.6-1.6-4.1-1.6-5.7,0c-1.6,1.6-1.6,4.1,0,5.7l6,6
				c0.8,0.8,1.8,1.2,2.8,1.2s2-0.4,2.8-1.2l10-10c1.6-1.6,1.6-4.1,0-5.7c-1.6-1.6-4.1-1.6-5.7,0l-7.2,7.2L413.8,319.2L413.8,319.2z"
				/>
		</defs>
		<clipPath id="SVGID_2_">
			<use xlink:href="#SVGID_1_"  style="overflow:visible;"/>
		</clipPath>
		<rect x="341" y="258" class="st0" width="108" height="96"/>
	</g>
</g>
</svg>
