<?xml version="1.0" encoding="utf-8"?>
<!-- Generator: Adobe Illustrator 24.0.3, SVG Export Plug-In . SVG Version: 6.00 Build 0)  -->
<svg version="1.1" id="Layer_1" xmlns="http://www.w3.org/2000/svg" xmlns:xlink="http://www.w3.org/1999/xlink" x="0px" y="0px"
	 viewBox="0 0 792 612" style="enable-background:new 0 0 792 612;" xml:space="preserve">
<style type="text/css">
	.st0{fill-rule:evenodd;clip-rule:evenodd;}
</style>
<path class="st0" d="M366.3,277.3c7.3,0,13.9,3,18.7,7.8l4-4c1.3-1.3,3.4-1.3,4.7,0c1.3,1.3,1.3,3.4,0,4.7l-4.6,4.6
	c6.2,10.4,4.4,23.6-4.1,32.1c-10.4,10.4-27,10.4-37.4,0c-10.4-10.4-10.4-27,0-37.4C352.5,280.2,359.1,277.3,366.3,277.3L366.3,277.3
	z M427.2,277.3c14.6,0,26.4,11.9,26.4,26.4c0,14.6-11.9,26.4-26.4,26.4c-14.6,0-26.4-11.9-26.4-26.4
	C400.8,289.2,412.7,277.3,427.2,277.3L427.2,277.3z M427.2,283.9c-10.9,0-19.8,8.9-19.8,19.8c0,10.9,8.9,19.8,19.8,19.8
	c10.9,0,19.8-8.9,19.8-19.8C447,292.8,438.1,283.9,427.2,283.9L427.2,283.9z M433.1,293.1l-5.9,5.9l-5.9-5.9c-1.3-1.3-3.4-1.3-4.7,0
	c-1.3,1.3-1.3,3.4,0,4.7l5.9,5.9l-5.9,5.9c-1.3,1.3-1.3,3.4,0,4.7c1.3,1.3,3.4,1.3,4.7,0l5.9-5.9l5.9,5.9c1.3,1.3,3.4,1.3,4.7,0
	c1.3-1.3,1.3-3.4,0-4.7l-5.9-5.9l5.9-5.9c1.3-1.3,1.3-3.4,0-4.7C436.5,291.8,434.4,291.8,433.1,293.1L433.1,293.1z M356.5,304.2
	c-1.3-1.3-1.3-3.4,0-4.7c1.3-1.3,3.4-1.3,4.7,0l4.7,4.7l14.4-14.4c-7.8-7.7-20.2-7.7-27.9,0c-7.7,7.7-7.7,20.2,0,27.9
	c7.7,7.7,20.2,7.7,27.9,0c5.9-5.9,7.5-14.8,3.9-22.4l-16,16c-1.3,1.3-3.4,1.3-4.7,0L356.5,304.2z"/>
</svg>
